<svg xmlns="http://www.w3.org/2000/svg" xmlns:xlink="http://www.w3.org/1999/xlink" id="Camada_1" x="0px" y="0px" viewBox="0 0 32.4 31.9" style="enable-background:new 0 0 32.4 31.9;" xml:space="preserve"><style type="text/css">	.st0{fill-rule:evenodd;clip-rule:evenodd;fill:url(#SVGID_1_);}</style><linearGradient id="SVGID_1_" gradientUnits="userSpaceOnUse" x1="10.6025" y1="3.8005" x2="21.4982" y2="30.0091">	<stop offset="2.006689e-02" style="stop-color:#8A5518"></stop>	<stop offset="0.5452" style="stop-color:#E1CB72"></stop>	<stop offset="1" style="stop-color:#F9EF96"></stop></linearGradient><path class="st0" d="M17,2.7c-0.9,0-0.9,1.4,0,1.4h1.4l0,1.4C14.5,5.7,11,7.8,9,11.1H3.7c-0.9,0-0.9,1.4,0,1.4l5.7,0 c0.2,0,0.5-0.1,0.6-0.3c1.9-3.2,5.3-5.2,9.1-5.2c1.6,0,3.1,0.4,4.4,1c0.8,0.4,1.4-0.9,0.6-1.3c-1.3-0.6-2.8-1-4.3-1.1V4.1h1.4 c0.9,0,0.9-1.4,0-1.4L17,2.7z M26.1,8c-0.4,0-0.7,0.3-0.7,0.7c0,0.4,0.3,0.7,0.7,0.7c0.4,0,0.7-0.3,0.7-0.7C26.8,8.3,26.5,8,26.1,8z  M19,8.3c-5,0-9.1,4.1-9.1,9.1c0,1.6,0.4,3.2,1.2,4.5c0.5,0.8,1.7,0.1,1.2-0.7c-0.7-1.2-1-2.5-1-3.8c0-4.3,3.4-7.7,7.7-7.7 c4.3,0,7.7,3.4,7.7,7.7c0,4.3-3.4,7.7-7.7,7.7c-1.3,0-2.7-0.4-3.8-1c-0.8-0.5-1.5,0.7-0.7,1.2c1.4,0.8,2.9,1.2,4.5,1.2 c5,0,9.1-4.1,9.1-9.1S24.1,8.3,19,8.3L19,8.3z M28,10c-0.6,0-0.9,0.7-0.5,1.1c1.3,1.7,2,3.9,2,6.2c0,5.8-4.7,10.5-10.5,10.5 c-3.7,0-7.2-2-9.1-5.2c-0.1-0.2-0.4-0.3-0.6-0.3H3.7c-0.9,0-0.9,1.4,0,1.4H9c2.2,3.5,5.9,5.6,10,5.6c6.6,0,11.9-5.3,11.9-11.9 c0-2.6-0.9-5.1-2.3-7C28.5,10.1,28.3,10,28,10C28,10,28,10,28,10L28,10z M19,11.1c-0.4,0-0.7,0.3-0.7,0.7v5.6c0,0.2,0.1,0.4,0.2,0.5 l2.8,2.8c0.7,0.7,1.6-0.3,1-1l-2.6-2.6v-5.3C19.8,11.4,19.4,11.1,19,11.1L19,11.1z M8.6,13.9l-5.6,0c-1,0-1,1.4,0,1.4h5.6 C9.5,15.3,9.6,13.9,8.6,13.9L8.6,13.9z M2.3,16.7c-0.9,0-0.9,1.4,0,1.4h5.6c1,0,1-1.4,0-1.4H2.3z M3,19.5c-1,0-1,1.4,0,1.4h5.6 c1,0,1-1.4,0-1.4H3z"></path></svg>