<svg xmlns="http://www.w3.org/2000/svg" xmlns:xlink="http://www.w3.org/1999/xlink" id="Camada_1" x="0px" y="0px" viewBox="0 0 32.4 31.9" style="enable-background:new 0 0 32.4 31.9;" xml:space="preserve"><style type="text/css">	.st0{fill:url(#SVGID_1_);}</style><linearGradient id="SVGID_1_" gradientUnits="userSpaceOnUse" x1="9.561" y1="3.3466" x2="25.2373" y2="27.07">	<stop offset="2.006689e-02" style="stop-color:#8A5518"></stop>	<stop offset="0.5452" style="stop-color:#E1CB72"></stop>	<stop offset="1" style="stop-color:#F9EF96"></stop></linearGradient><path class="st0" d="M16.2,2.1c-2.2,0-4,1-5.6,2S7.4,6,5.6,6.1c-0.4,0-0.6,0.3-0.6,0.7V16c0,2.9,0.8,5.2,1.9,7.1 c0.1,0.2,0.2,0.3,0.4,0.3c0.2,0,0.4,0,0.5-0.1C7.9,23.2,8,23,8,22.9c0-0.2,0-0.4-0.1-0.5c-1-1.7-1.7-3.8-1.7-6.4v-4.7 c1.9-0.2,3.5-1.2,5-2.1c1.6-1,3.2-1.8,5-1.8s3.3,0.9,5,1.8c1.5,0.9,3.1,1.8,5,2.1V16c0,5.1-2.5,8.2-5,10.1c-2.4,1.8-4.7,2.4-4.9,2.5 c-0.2-0.1-2.8-0.8-5.4-2.9c-0.1-0.1-0.3-0.2-0.5-0.1c-0.2,0-0.3,0.1-0.4,0.2c-0.1,0.1-0.2,0.3-0.1,0.5c0,0.2,0.1,0.3,0.2,0.4 c2.9,2.4,6.1,3.2,6.1,3.2c0.1,0,0.2,0,0.3,0c0,0,2.8-0.7,5.5-2.8c2.8-2.1,5.6-5.6,5.6-11.1V6.7c0-0.4-0.3-0.6-0.6-0.7 c-1.8-0.1-3.3-1-5-1.9C20.2,3.1,18.4,2.1,16.2,2.1L16.2,2.1z M16.2,3.4c1.8,0,3.3,0.9,5,1.8c1.5,0.9,3.1,1.8,5,2V10 c-1.5-0.2-2.9-1-4.3-1.9c-1.7-1-3.4-2-5.6-2s-4,1-5.6,2C9.1,8.9,7.8,9.7,6.3,10V7.3c1.9-0.2,3.5-1.2,5-2C12.9,4.3,14.4,3.4,16.2,3.4 z M16.2,11.3c-0.4,0-0.9,0.1-1.3,0.1c-0.2,0-0.3,0.1-0.4,0.3c-0.1,0.2-0.1,0.3-0.1,0.5c0,0.2,0.1,0.3,0.3,0.4s0.3,0.1,0.5,0.1 c0.3-0.1,0.7-0.1,1-0.1c2.6,0,4.6,2.1,4.6,4.6c0,2.6-2.1,4.6-4.6,4.6s-4.6-2.1-4.6-4.6c0-0.5,0.1-1.1,0.3-1.6c0.1-0.2,0.1-0.4,0-0.5 c-0.1-0.2-0.2-0.3-0.4-0.4c-0.2-0.1-0.4-0.1-0.5,0c-0.2,0.1-0.3,0.2-0.3,0.4c-0.2,0.6-0.4,1.3-0.4,2c0,3.3,2.7,6,6,6s6-2.7,6-6 S19.5,11.3,16.2,11.3L16.2,11.3z M18.2,15.3c-0.2,0-0.3,0.1-0.5,0.2l-2.2,2.2l-0.9-0.9c-0.1-0.1-0.3-0.2-0.5-0.2 c-0.2,0-0.4,0.1-0.5,0.2c-0.1,0.1-0.2,0.3-0.2,0.5c0,0.2,0.1,0.3,0.2,0.5l1.3,1.3c0.3,0.3,0.7,0.3,0.9,0l2.6-2.6 c0.2-0.2,0.3-0.5,0.1-0.7C18.7,15.5,18.4,15.3,18.2,15.3L18.2,15.3z M8.7,23.9c-0.4,0-0.7,0.3-0.7,0.7c0,0.4,0.3,0.7,0.7,0.7 c0.4,0,0.7-0.3,0.7-0.7C9.4,24.2,9.1,23.9,8.7,23.9z"></path></svg>