<svg xmlns="http://www.w3.org/2000/svg" xmlns:xlink="http://www.w3.org/1999/xlink" id="Camada_1" x="0px" y="0px" viewBox="0 0 110.8 32.8" style="enable-background:new 0 0 110.8 32.8;" xml:space="preserve"><style type="text/css">	.st0{fill-rule:evenodd;clip-rule:evenodd;fill:#FFFFFF;}</style><path class="st0" d="M88.7,16.1c0,0-2.6,6.5-3.9,9.4c-1.2,2.9-2.6,5.4-5.2,5.4c-1.7,0-3-0.8-3.8-2.3l2.5-2.3l0.3,0.1 c-0.4,1.8,0,4.4,1.7,4.1c1.7-0.2,3-2.3,4.2-4.7L80.3,16c-1.4-3.2-2-4.6-3.6-5.9V9.8h4.9V10c-0.7,0.9-0.6,1.7,0.3,3.6l3.9,9.1 l2.6-6.6c1.2-3,1.6-4.8,0.1-6V9.8h3.9V10C91,11.5,89.9,13.1,88.7,16.1 M70.5,25.6c-3,0-4.8-1.9-4.8-5.7V10h-1.9V9.8 c2.7,0,2.9-2.9,2.9-4.5h2.6c0,2.5-2.5,4.4-4.3,4.5h7.1V10h-3.8v10.4c0,2.8,0.7,5,3.5,4.7c2.2-0.3,3.3-2.9,3.9-5.4l0.1,0.1 C75.3,22.8,73.8,25.6,70.5,25.6z M58.8,25.5c0,0,0-0.1,0-0.2c0.4-0.3,0.6-0.8,0.6-1.9v-11c0-1.1,0-1.5-0.6-1.6c0-0.1,0-0.2,0-0.2 l3-0.8H62v13.5c0,1.2,0.3,1.6,0.7,1.9c0,0.1,0,0.2,0,0.2H58.8z M55.6,14.5l-0.1-0.1c-0.1-1.8-1-4.3-2.7-4c-3.2,0.5-3.6,8.9-3.6,11.7 v1.3c0,1.2,0.1,1.6,0.7,1.9c0,0.1,0,0.2,0,0.2h-4c0,0,0-0.1,0-0.2c0.6-0.3,0.7-0.8,0.7-1.9v-11c0-1.1-0.1-1.5-0.7-1.6 c0-0.1,0-0.2,0-0.2l3-0.8h0.3v8.7c0.3-3.9,1.2-8.7,4.6-8.7c1.9,0,2.9,0.7,3.9,1.9L55.6,14.5z M41.5,15.3c-0.1-0.1-1-0.3-2-0.3 c-3.5,0-8.4,1.8-6.9,7.5c0.4,1.7,2.3,2.8,3.9,2.7c2.9-0.1,4.3-2.6,5.1-4.9V15.3z M41.5,14.8c0-2.5-1-4.7-3.3-4.7 c-2.9,0-4.9,2.9-3.9,5.5c1.7-0.7,3.8-0.9,5.2-0.9c0.7,0,1.4,0.1,2,0.3V14.8z M41.5,25.5v-4.6c-0.9,2.9-2.6,4.7-5.8,4.7 c-2.7,0-5.3-1.3-5.8-3.6c-0.4-3.3,1.4-5.3,4-6.3c-0.9-1.9,0.1-6,4.5-6c2.7,0,5.6,1.5,5.6,5.5v8.1c0,1.2,0.1,1.6,0.7,1.9 c0,0.1,0,0.2,0,0.2H41.5z M24.9,25.5c0,0,0-0.1,0-0.2c0.4-0.3,0.7-0.8,0.7-1.9V4.4c0-1.1-0.1-1.5-0.7-1.6c0,0,0-0.2,0-0.2l3-0.7H28 v21.3c0,1.2,0.3,1.6,0.7,1.9c0,0.1,0,0.2,0,0.2H24.9z M16.8,24.5c2.9-0.4,5.5-2.4,7.1-5.6l0.3,0.1c-1.7,3.6-4.9,6.6-10.7,6.6 c-6.4,0-12-5.2-12-11.7c0-6.4,5.8-11.7,12.3-11.7c3.5,0,5.6,0.9,8.4,2.7l-0.9,3.7H21C18.5,5,14.7,2.2,10.4,3.1 c-5.6,1.2-7.7,7.8-5.8,13.6C6.4,22.4,11,25.4,16.8,24.5z M61.4,7.4c-0.1,0-0.1,0-0.1,0.1c0,0.4-0.4,0.8-0.9,0.8c0,0,0,0,0,0 c0,0,0,0.1,0,0.1C61,8.4,61.4,8,61.4,7.4C61.4,7.4,61.4,7.4,61.4,7.4z M60.4,9C59.7,9,59,8.2,59,7.4c0-0.8,0.4-1.6,1-2.2 c0.1-0.2,0.3-0.5,0.4-0.7c0,0,0.1,0,0.1,0C60.7,4.8,60.8,5,61,5.2c0.4,0.7,1,1.4,1,2.2C62,8.2,61.3,9,60.4,9z"></path><path class="st0" d="M100.6,15.2h-3.3l-0.1,0l0,0l0,0l-0.1,0c-2.8,0.1-5.1,2.3-5.4,5l0,0.1l0,0l0,0l0,0.1l0,0.1l0,0l0,0l0,0.1l0,0v0 l0,0.1l0,0.1v0.9h9.5h2.7l0.1,0l0,0l0,0l0.1,0l0,0c1,0,2-0.4,2.7-0.9c1.1-0.8,2-1.9,2.3-3.3l0,0l0-0.1l0,0l0,0l0-0.1l0,0v0 c0.1-0.3,0.1-0.5,0.1-0.8l0,0l0-0.1l0,0v0l0-0.1l0-0.1v-0.8H100.6z M97,19.7c-0.1,0.1-0.2,0.3-0.3,0.3c-0.1,0.1-0.3,0.2-0.5,0.2 c-0.2,0-0.4,0.1-0.7,0.1c-0.2,0-0.4,0-0.6-0.1c-0.2,0-0.4-0.1-0.5-0.2v-0.6c0.2,0.1,0.4,0.1,0.6,0.2c0.2,0,0.4,0.1,0.6,0.1 c0.1,0,0.2,0,0.3,0c0.1,0,0.2,0,0.3-0.1c0.1,0,0.2-0.1,0.2-0.2c0.1-0.1,0.1-0.2,0.1-0.3c0-0.1,0-0.2-0.1-0.2c0-0.1-0.1-0.1-0.2-0.1 c-0.1,0-0.2-0.1-0.3-0.1c-0.1,0-0.2,0-0.3-0.1c-0.1,0-0.3-0.1-0.4-0.1c-0.1,0-0.3-0.1-0.4-0.2c-0.1-0.1-0.2-0.2-0.2-0.3 c-0.1-0.1-0.1-0.3-0.1-0.4c0-0.2,0-0.4,0.1-0.5c0.1-0.1,0.2-0.3,0.3-0.3c0.1-0.1,0.3-0.2,0.4-0.2c0.2,0,0.3-0.1,0.6-0.1 s0.4,0,0.6,0.1c0.2,0,0.4,0.1,0.5,0.1v0.6c-0.2-0.1-0.4-0.1-0.6-0.2c-0.2,0-0.4,0-0.5,0c-0.2,0-0.4,0-0.5,0.1 c-0.1,0.1-0.2,0.2-0.2,0.4c0,0.1,0,0.2,0.1,0.2c0,0.1,0.1,0.1,0.2,0.1c0.1,0,0.2,0.1,0.2,0.1c0.1,0,0.2,0,0.3,0.1 c0.2,0,0.3,0.1,0.5,0.1c0.1,0,0.3,0.1,0.4,0.2c0.1,0.1,0.2,0.2,0.3,0.3c0.1,0.1,0.1,0.3,0.1,0.5C97.1,19.4,97.1,19.5,97,19.7z  M100.2,20.2l-1.6-1.6h0v1.6h-0.7v-3.6h0.7v1.6h0l1.4-1.6h0.9l-1.6,1.8l1.7,1.8H100.2z M102.3,20.2h-0.7v-3.6h0.7V20.2z M106.6,20.2 h-0.7l-1.3-1.6c-0.2-0.3-0.4-0.6-0.7-1h0c0,0.4,0,0.8,0,1v1.6h-0.7v-3.6h0.7l1.3,1.7c0.3,0.4,0.5,0.7,0.7,1h0c0-0.5,0-0.8,0-1v-1.6 h0.7V20.2z"></path></svg>