<svg xmlns="http://www.w3.org/2000/svg" xmlns:xlink="http://www.w3.org/1999/xlink" id="Camada_1" x="0px" y="0px" viewBox="0 0 32.4 31.9" style="enable-background:new 0 0 32.4 31.9;" xml:space="preserve"><style type="text/css">	.st0{fill-rule:evenodd;clip-rule:evenodd;fill:url(#SVGID_1_);}</style><linearGradient id="SVGID_1_" gradientUnits="userSpaceOnUse" x1="2.1352" y1="6.9142" x2="28.1966" y2="31.6504">	<stop offset="2.006689e-02" style="stop-color:#8A5518"></stop>	<stop offset="0.5452" style="stop-color:#E1CB72"></stop>	<stop offset="1" style="stop-color:#F9EF96"></stop></linearGradient><path class="st0" d="M6.2,29.2c-1.1,0-1.9-0.9-1.9-2l0-14.3c0-1.1,0.9-2,1.9-2h3.9c0.5,0,1,0.2,1.3,0.5l2-3.9V3.8 c0-0.5,0.2-1,0.6-1.4s0.8-0.6,1.4-0.6c1.5,0,2.9,0.8,3.7,2.3c0.7,1.5,0.9,3.6,0.2,6.3c-0.1,0.3-0.1,0.9-0.1,1.4c0,0.2,0,0.2,0,0.4 h7.4c0.9,0,1.6,0.5,2,1.1c0.4,0.6,0.5,1.4,0.4,2.2l-1.7,11.1c-0.1,0.8-0.4,1.4-0.9,1.8c-0.5,0.4-1.1,0.7-1.7,0.7l-9.3,0 c-1.4,0-2.5-0.4-3.2-0.7c-0.1-0.1-0.2-0.1-0.3-0.2c-0.3,0.5-1,0.9-1.6,0.9L6.2,29.2z M6.2,27.9h3.9c0.4,0,0.7-0.3,0.7-0.7v-2.6 c0-0.4,0.3-0.7,0.7-0.7c0.4,0,0.7,0.3,0.7,0.7v2.3c0.1,0.1,0.3,0.2,0.6,0.4c0.6,0.3,1.4,0.6,2.6,0.6h9.3c0.3,0,0.6-0.1,0.8-0.3 c0.2-0.2,0.4-0.5,0.5-1.1l1.7-11.1c0.1-0.5,0-1-0.2-1.4c-0.2-0.3-0.4-0.5-0.8-0.5h-8c-0.3,0-0.6-0.2-0.6-0.6c0,0-0.1-0.5-0.1-1 c0-0.6,0-1.2,0.1-1.8c0.6-2.5,0.4-4.3-0.1-5.4c-0.6-1.1-1.4-1.6-2.5-1.6c-0.1,0-0.3,0.1-0.4,0.2c-0.1,0.1-0.2,0.3-0.2,0.4l0,3.9 c0,0.1,0,0.2-0.1,0.3l-2.5,5.1v7.7c0,0.2-0.1,0.3-0.2,0.5c-0.1,0.1-0.3,0.2-0.5,0.2c-0.2,0-0.3-0.1-0.5-0.2 c-0.1-0.1-0.2-0.3-0.2-0.5v-7.8c0-0.4-0.3-0.7-0.7-0.7l-3.9,0c-0.4,0-0.6,0.3-0.6,0.7v14.3C5.6,27.6,5.8,27.9,6.2,27.9L6.2,27.9z  M7.5,26.6c-0.4,0-0.6-0.3-0.6-0.7v-9.8c0-0.2,0.1-0.3,0.2-0.5c0.1-0.1,0.3-0.2,0.5-0.2c0.2,0,0.3,0.1,0.5,0.2 c0.1,0.1,0.2,0.3,0.2,0.5v9.8c0,0.2-0.1,0.3-0.2,0.5C7.8,26.5,7.7,26.6,7.5,26.6L7.5,26.6z M7.5,14.9c-0.2,0-0.3-0.1-0.5-0.2 c-0.1-0.1-0.2-0.3-0.2-0.5c0-0.2,0.1-0.3,0.2-0.5c0.1-0.1,0.3-0.2,0.5-0.2s0.3,0.1,0.5,0.2c0.1,0.1,0.2,0.3,0.2,0.5 C8.2,14.6,7.9,14.9,7.5,14.9L7.5,14.9z"></path></svg>