<svg xmlns="http://www.w3.org/2000/svg" xmlns:xlink="http://www.w3.org/1999/xlink" id="Camada_1" x="0px" y="0px" viewBox="0 0 32.4 31.9" style="enable-background:new 0 0 32.4 31.9;" xml:space="preserve"><style type="text/css">	.st0{fill:url(#SVGID_1_);}	.st1{fill:url(#SVGID_00000088840999444451507100000016764160271801955491_);}	.st2{fill:url(#SVGID_00000034795300901234472430000007571349564520326318_);}	.st3{fill:url(#SVGID_00000000902410395397697190000007000468638643942040_);}	.st4{fill:url(#SVGID_00000173848557607280763250000017368115565292204217_);}</style><g>	<linearGradient id="SVGID_1_" gradientUnits="userSpaceOnUse" x1="3.733" y1="5.0054" x2="26.187" y2="31.6557">		<stop offset="2.006689e-02" style="stop-color:#8A5518"></stop>		<stop offset="0.5452" style="stop-color:#E1CB72"></stop>		<stop offset="1" style="stop-color:#F9EF96"></stop>	</linearGradient>	<path class="st0" d="M15,23.3c0,1.5,1.2,2.7,2.7,2.7c0.5,0,0.9-0.1,1.4-0.4c0.4,0.2,0.9,0.4,1.4,0.4c1.5,0,2.7-1.2,2.7-2.7  c0-1.5-1.2-2.7-2.7-2.7c-0.5,0-1,0.1-1.4,0.4c-0.4-0.2-0.9-0.4-1.4-0.4C16.3,20.5,15,21.8,15,23.3z M20.5,21.9  c0.8,0,1.4,0.6,1.4,1.4c0,0.8-0.6,1.4-1.4,1.4s-1.4-0.6-1.4-1.4C19.1,22.5,19.7,21.9,20.5,21.9z M17.8,21.9c0.1,0,0.2,0,0.3,0  c-0.2,0.4-0.3,0.8-0.3,1.3s0.1,0.9,0.3,1.3c-0.1,0-0.2,0-0.3,0c-0.8,0-1.4-0.6-1.4-1.4C16.4,22.5,17,21.9,17.8,21.9z"></path>			<linearGradient id="SVGID_00000176745997914126951820000018355842338172968639_" gradientUnits="userSpaceOnUse" x1="17.6555" y1="20.4259" x2="17.8582" y2="20.6665">		<stop offset="2.006689e-02" style="stop-color:#8A5518"></stop>		<stop offset="0.5452" style="stop-color:#E1CB72"></stop>		<stop offset="1" style="stop-color:#F9EF96"></stop>	</linearGradient>	<polygon style="fill:url(#SVGID_00000176745997914126951820000018355842338172968639_);" points="17.8,20.5 17.8,20.5 17.8,20.5    "></polygon>			<linearGradient id="SVGID_00000049201430062230529930000001060810623632643974_" gradientUnits="userSpaceOnUse" x1="5.4025" y1="3.5987" x2="27.8565" y2="30.249">		<stop offset="2.006689e-02" style="stop-color:#8A5518"></stop>		<stop offset="0.5452" style="stop-color:#E1CB72"></stop>		<stop offset="1" style="stop-color:#F9EF96"></stop>	</linearGradient>	<path style="fill:url(#SVGID_00000049201430062230529930000001060810623632643974_);" d="M28.2,3.5l-20.1,0c-1.1,0-2,0.9-2,2v4h-2  c-1.1,0-2,0.9-2,2v8c0,0.2,0.1,0.4,0.2,0.5c0.1,0.1,0.3,0.2,0.5,0.2c0.2,0,0.4-0.1,0.5-0.2c0.1-0.1,0.2-0.3,0.2-0.5V16h21.4v11.3  c0,0.4-0.3,0.7-0.7,0.7H4.1c-0.4,0-0.7-0.3-0.7-0.7v-3.6c0-0.2-0.1-0.4-0.2-0.5C3.2,23,3,23,2.8,23c-0.2,0-0.4,0.1-0.5,0.2  c-0.1,0.1-0.2,0.3-0.2,0.5v3.6c0,1.1,0.9,2,2,2h20.1c1.1,0,2-0.9,2-2v-3h2c1.1,0,2-0.9,2-2V5.5C30.2,4.4,29.3,3.5,28.2,3.5z   M28.9,22.2c0,0.4-0.3,0.7-0.7,0.7h-2V11.5c0-1.1-0.9-2-2-2h-4c-0.2,0-0.4,0.1-0.5,0.2c-0.1,0.1-0.2,0.3-0.2,0.5  c0,0.2,0.1,0.4,0.2,0.5c0.1,0.1,0.3,0.2,0.5,0.2h4c0.4,0,0.7,0.3,0.7,0.7v2.9H3.5v-2.9c0-0.4,0.3-0.7,0.7-0.7h10.7  c0.2,0,0.4-0.1,0.5-0.2c0.1-0.1,0.2-0.3,0.2-0.5c0-0.2-0.1-0.4-0.2-0.5c-0.1-0.1-0.3-0.2-0.5-0.2H7.5v-4c0-0.4,0.3-0.7,0.7-0.7  h20.1c0.4,0,0.7,0.3,0.7,0.7V22.2z"></path>			<linearGradient id="SVGID_00000168079873365138212430000013063981380569525134_" gradientUnits="userSpaceOnUse" x1="9.2348" y1="0.3699" x2="31.6888" y2="27.0202">		<stop offset="2.006689e-02" style="stop-color:#8A5518"></stop>		<stop offset="0.5452" style="stop-color:#E1CB72"></stop>		<stop offset="1" style="stop-color:#F9EF96"></stop>	</linearGradient>	<path style="fill:url(#SVGID_00000168079873365138212430000013063981380569525134_);" d="M17.5,9.5c-0.4,0-0.7,0.3-0.7,0.7  c0,0.4,0.3,0.7,0.7,0.7c0.4,0,0.7-0.3,0.7-0.7C18.2,9.8,17.9,9.5,17.5,9.5z"></path>			<linearGradient id="SVGID_00000129887821053679241540000009223657166851998126_" gradientUnits="userSpaceOnUse" x1="-4.9806" y1="12.3469" x2="17.4734" y2="38.9972">		<stop offset="2.006689e-02" style="stop-color:#8A5518"></stop>		<stop offset="0.5452" style="stop-color:#E1CB72"></stop>		<stop offset="1" style="stop-color:#F9EF96"></stop>	</linearGradient>	<path style="fill:url(#SVGID_00000129887821053679241540000009223657166851998126_);" d="M2.8,22.3c0.2,0,0.3-0.1,0.5-0.2  c0.1-0.1,0.2-0.3,0.2-0.5c0-0.2-0.1-0.3-0.2-0.5C3.2,21,3,20.9,2.8,20.9c-0.4,0-0.7,0.3-0.7,0.7c0,0.2,0.1,0.3,0.2,0.5  S2.6,22.3,2.8,22.3z"></path></g></svg>